
<svg xmlns="http://www.w3.org/2000/svg" xmlns:xlink="http://www.w3.org/1999/xlink" viewBox="0 0 251.346 62">
  <defs>
    <style>
      .cls-1 {
        fill: #00539f;
      }

      .cls-2 {
        fill: #24a9e1;
      }

      .cls-3 {
        fill: #ffc949;
      }

      .cls-4 {
        fill: none;
      }

      .cls-5 {
        fill: url(#linear-gradient);
      }

      .cls-6 {
        fill: url(#linear-gradient-2);
      }

      .cls-7 {
        fill: url(#linear-gradient-3);
      }

      .cls-8 {
        fill: url(#linear-gradient-4);
      }

      .cls-9 {
        fill: url(#linear-gradient-5);
      }

      .cls-10 {
        fill: url(#linear-gradient-6);
      }

      .cls-11 {
        fill: url(#linear-gradient-7);
      }

      .cls-12 {
        clip-path: url(#clip-path);
      }

      .cls-13 {
        clip-path: url(#clip-path-2);
      }
    </style>
    <linearGradient id="linear-gradient" x1="0.526" y1="2.017" x2="0.504" y2="0.663" gradientUnits="objectBoundingBox">
      <stop offset="0" stop-color="#fff"/>
      <stop offset="1" stop-color="#b5bede"/>
    </linearGradient>
    <linearGradient id="linear-gradient-2" x1="0.511" y1="1.17" x2="0.496" y2="0.334" xlink:href="#linear-gradient"/>
    <linearGradient id="linear-gradient-3" x1="0.567" y1="4.627" x2="0.515" y2="1.424" xlink:href="#linear-gradient"/>
    <linearGradient id="linear-gradient-4" x1="0.509" y1="0.966" x2="0.495" y2="0.328" xlink:href="#linear-gradient"/>
    <linearGradient id="linear-gradient-5" x1="0.268" y1="-0.248" x2="0.246" y2="-1.059" xlink:href="#linear-gradient"/>
    <linearGradient id="linear-gradient-6" x1="0.147" y1="-0.102" x2="0.113" y2="-0.75" xlink:href="#linear-gradient"/>
    <linearGradient id="linear-gradient-7" x1="0.363" y1="-0.271" x2="0.347" y2="-1.068" xlink:href="#linear-gradient"/>
    <clipPath id="clip-path">
      <path id="Path_5649" data-name="Path 5649" class="cls-1" d="M21.494,24.639V30H20V24.639H18.5V23.458h4.569v1.182ZM27.56,30V27.16H25.433V30h-1.5V23.458h1.5v2.521H27.56V23.458h1.576V30Zm7.8-1.182V30H30.711V23.458H35.36v1.182H32.208v1.418h2.442v1.1H32.13v1.654ZM43.238,30l-.473-1.576H40.717L40.244,30H38.984l2.048-6.539h1.654L44.814,30Zm-1.5-5.121-.709,2.442H42.45l-.709-2.442ZM51.038,30V24.8L49.462,30H48.438l-1.576-5.2V30H45.68V23.458h2.048l1.418,4.333,1.339-4.333h2.048V30Zm7.642-1.182V30H53.953V23.458H58.6v1.182H55.45v1.418h2.521v1.1H55.45v1.654Zm5.357-1.733L65.3,30H63.643l-1.1-2.679H61.358V30h-1.5V23.458H62.7c1.654,0,2.521.63,2.521,1.891a1.8,1.8,0,0,1-1.182,1.733Zm-1.5-2.521h-1.1v1.733h1.1c.709,0,1.1-.315,1.1-.867s-.394-.867-1.1-.867ZM66.4,30V23.458h1.576V30Zm5.672-5.515c-.867,0-1.339.788-1.339,2.206,0,1.5.473,2.206,1.339,2.206.63,0,1.024-.473,1.182-1.339l1.418.158a2.518,2.518,0,0,1-2.6,2.364c-1.733,0-2.915-1.261-2.915-3.388S70.34,23.3,72.073,23.3a2.531,2.531,0,0,1,2.6,2.442l-1.418.158c-.079-.867-.551-1.418-1.182-1.418ZM79.321,30l-.473-1.576H76.8L76.327,30H75.067l2.048-6.539H78.77L80.9,30Zm-1.5-5.121-.709,2.442h1.418l-.709-2.442ZM85.781,30,83.024,25.27,83.1,30H81.842V23.458h1.576l2.521,4.254-.079-4.254h1.261V30Zm8.351-5.515c-.63,0-.945.315-.945.709,0,.551.551.63,1.418.867a3.917,3.917,0,0,1,1.654.709,1.683,1.683,0,0,1,.63,1.339c0,1.182-1.024,2.048-2.679,2.048a2.64,2.64,0,0,1-2.836-1.97l1.418-.236a1.412,1.412,0,0,0,1.5,1.024c.63,0,1.024-.315,1.024-.788,0-.551-.551-.63-1.418-.867a3.5,3.5,0,0,1-1.733-.788,1.6,1.6,0,0,1-.473-1.182c0-1.182.945-2.048,2.6-2.048a2.429,2.429,0,0,1,2.521,1.654l-1.339.394a1.341,1.341,0,0,0-1.339-.867Zm6.618,5.672c-1.733,0-2.915-1.339-2.915-3.388s1.182-3.388,2.915-3.388,2.915,1.339,2.915,3.388-1.182,3.388-2.915,3.388Zm0-5.672c-.788,0-1.339.788-1.339,2.206s.473,2.206,1.339,2.206c.788,0,1.339-.788,1.339-2.206-.079-1.418-.551-2.206-1.339-2.206Zm6.7,0c-.867,0-1.339.788-1.339,2.206,0,1.5.473,2.206,1.339,2.206.63,0,1.024-.473,1.182-1.339l1.418.158a2.518,2.518,0,0,1-2.6,2.364c-1.733,0-2.915-1.261-2.915-3.388s1.182-3.388,2.915-3.388a2.53,2.53,0,0,1,2.6,2.442l-1.418.158c-.079-.867-.551-1.418-1.182-1.418ZM111.228,30V23.458H112.8V30Zm7.8-1.182V30H114.38V23.458h4.648v1.182h-3.151v1.418H118.4v1.1h-2.6v1.654Zm3.545-4.176V30h-1.5V24.639h-1.5V23.458h4.569v1.182Zm5.2,2.521V30h-1.5V27.239l-2.206-3.782h1.654l1.418,2.521,1.339-2.521h1.339l-2.048,3.7Zm8.43,2.994c-1.733,0-2.915-1.339-2.915-3.388s1.182-3.388,2.915-3.388,2.915,1.339,2.915,3.388-1.182,3.388-2.915,3.388Zm0-5.672c-.788,0-1.339.788-1.339,2.206s.473,2.206,1.339,2.206c.788,0,1.339-.788,1.339-2.206-.079-1.418-.551-2.206-1.339-2.206Zm5.672.158v1.5h2.364v1.1h-2.364V30h-1.5V23.458h4.491v1.182ZM154.244,30V24.8L152.669,30h-1.024l-1.576-5.2V30h-1.182V23.458h2.048l1.418,4.333,1.339-4.333h2.127V30Zm7.642-1.182V30h-4.648V23.458h4.648v1.182h-3.151v1.418h2.521v1.1h-2.521v1.654Zm3.782-4.333c-.867,0-1.339.788-1.339,2.206,0,1.5.473,2.206,1.339,2.206.63,0,1.024-.473,1.182-1.339l1.418.158a2.518,2.518,0,0,1-2.6,2.364c-1.733,0-2.915-1.261-2.915-3.388s1.182-3.388,2.915-3.388a2.53,2.53,0,0,1,2.6,2.442l-1.418.158c-.079-.867-.551-1.418-1.182-1.418ZM173.074,30V27.16h-2.127V30h-1.5V23.458h1.5v2.521h2.127V23.458h1.5V30Zm6.618,0-.473-1.576h-2.048L176.7,30h-1.261l2.048-6.539h1.654L181.267,30Zm-1.5-5.121-.709,2.442H178.9l-.709-2.442ZM186.152,30l-2.757-4.727L183.473,30h-1.261V23.458h1.576l2.521,4.254-.079-4.254h1.261V30Zm2.836,0V23.458h1.576V30Zm5.672-5.515c-.867,0-1.339.788-1.339,2.206,0,1.5.473,2.206,1.339,2.206.63,0,1.024-.473,1.182-1.339l1.418.158a2.518,2.518,0,0,1-2.6,2.364c-1.733,0-2.915-1.261-2.915-3.388s1.182-3.388,2.915-3.388a2.53,2.53,0,0,1,2.6,2.442l-1.418.158c-.079-.867-.552-1.418-1.182-1.418ZM201.909,30l-.473-1.576h-2.048L198.915,30h-1.261l2.048-6.539h1.654L203.484,30Zm-1.5-5.121-.709,2.442h1.418l-.709-2.442ZM204.351,30V23.458h1.576v5.357h2.757V30Z" transform="translate(-18.5 -23.3)"/>
    </clipPath>
    <clipPath id="clip-path-2">
      <path id="Path_5650" data-name="Path 5650" class="cls-1" d="M269.527,28.815V30H264.8V23.458h4.648v1.182H266.3v1.418h2.521v1.1H266.3v1.654Zm5.2,1.182-2.757-4.727L272.048,30h-1.261V23.458h1.576l2.521,4.254-.079-4.254h1.261V30Zm5.357-3.466h2.757v3.545h-.788l-.236-.709a2.089,2.089,0,0,1-1.812.788c-1.654,0-2.836-1.261-2.836-3.388,0-2.048,1.182-3.388,2.994-3.388a2.442,2.442,0,0,1,2.6,2.127l-1.418.158c-.158-.788-.63-1.182-1.182-1.182-.867,0-1.339.788-1.339,2.206s.473,2.206,1.418,2.206a1.1,1.1,0,0,0,1.182-1.1v-.236h-1.339V26.53Zm4.1,3.466V23.458h1.576V30Zm7.091,0-2.757-4.727L288.593,30h-1.261V23.458h1.576l2.521,4.254-.079-4.254h1.261V30Zm7.484-1.182V30h-4.648V23.458h4.648v1.182H295.6v1.418h2.521v1.1H295.6v1.654Zm5.909,0V30h-4.727V23.458h4.648v1.182h-3.151v1.418h2.521v1.1h-2.521v1.654Zm5.357-1.733L311.282,30h-1.654l-1.1-2.679h-1.182V30h-1.5V23.458h2.836c1.654,0,2.521.63,2.521,1.891a1.918,1.918,0,0,1-1.182,1.733Zm-1.576-2.521h-1.1v1.733h1.1c.709,0,1.1-.315,1.1-.867.079-.551-.315-.867-1.1-.867Zm6.3-.079c-.63,0-.945.315-.945.709,0,.551.552.63,1.418.867a3.917,3.917,0,0,1,1.654.709,1.683,1.683,0,0,1,.63,1.339c0,1.182-1.024,2.048-2.679,2.048a2.64,2.64,0,0,1-2.836-1.97l1.418-.236a1.412,1.412,0,0,0,1.5,1.024c.63,0,1.024-.315,1.024-.788,0-.551-.552-.63-1.418-.867a3.5,3.5,0,0,1-1.733-.788,1.6,1.6,0,0,1-.473-1.182c0-1.182.945-2.048,2.6-2.048a2.429,2.429,0,0,1,2.521,1.654l-1.339.394a1.341,1.341,0,0,0-1.339-.867Z" transform="translate(-264.8 -23.3)"/>
    </clipPath>
  </defs>
  <g id="Group_4527" data-name="Group 4527" transform="translate(-77 -18)">
    <g id="Group_4512" data-name="Group 4512" transform="translate(77 18)">
      <g id="Group_4506" data-name="Group 4506" transform="translate(152.25 14.967)">
        <path id="Path_5607" data-name="Path 5607" class="cls-1" d="M174.685,21.212c0,3.6-2.032,4.9-4.712,4.9H164.8V25h.647c.647,0,.831-.092.831-.647v-6c0-.554-.277-.739-.739-.739H164.8V16.5h5.081C173.207,16.592,174.593,18.071,174.685,21.212Zm-5.635,3.88h.554c1.94,0,2.772-.831,2.772-3.88,0-2.772-.739-3.7-2.772-3.7h-.554c-.462,0-.554.277-.647.554-.092,1.016,0,5.266,0,6.282C168.4,24.907,168.68,25.092,169.05,25.092Z" transform="translate(-164.8 -16.223)"/>
        <path id="Path_5608" data-name="Path 5608" class="cls-1" d="M176.3,24.992h.647c.554,0,.739-.185.739-.647v-6.1c0-.554-.185-.739-.739-.739H176.3V16.4h4.989v1.109h-.647c-.462,0-.647.185-.739.739-.092.739,0,5.174,0,6.1,0,.462.185.647.739.647h.647V26.1H176.3Z" transform="translate(-165.676 -16.215)"/>
        <path id="Path_5609" data-name="Path 5609" class="cls-1" d="M189.436,16.847c.647.37.831.277.924-.462h1.016a20.119,20.119,0,0,0-.185,3.511H189.9c-.185-1.478-.647-2.587-2.4-2.587S185,18.417,185,21.281c0,3.233,1.109,3.973,2.4,3.973a1.97,1.97,0,0,0,2.217-2.125c0-.831-.092-1.2-.831-1.2h-.554V21h4.434v.924h-.37c-.37,0-.554.185-.554.739,0,.739,0,2.4.092,3.418h-1.2c-.092-.277-.185-.924-.37-1.386a3.363,3.363,0,0,1-3.049,1.571c-2.772,0-4.619-1.386-4.619-5.081,0-3.511,2.032-4.989,4.619-4.989A5.877,5.877,0,0,1,189.436,16.847Z" transform="translate(-166.156 -16.2)"/>
        <path id="Path_5610" data-name="Path 5610" class="cls-1" d="M193.8,24.992h.647c.554,0,.739-.185.739-.647v-6.1c0-.554-.185-.739-.739-.739H193.8V16.4h4.989v1.109h-.647c-.462,0-.647.185-.739.739-.092.739,0,5.174,0,6.1,0,.462.185.647.739.647h.647V26.1H193.8Z" transform="translate(-167.008 -16.215)"/>
        <path id="Path_5611" data-name="Path 5611" class="cls-1" d="M205.52,17.609v6.559c0,.554.185.831.831.831h.739v1.109h-5.174V25h.647c.647,0,.831-.277.831-.831V17.609h-.924c-1.016,0-1.293.462-1.386,1.293l-.092,1.293h-1.2c0-.924,0-2.864-.092-3.7.462,0,1.109.092,2.4.092h4.342a12.583,12.583,0,0,0,2.31-.092c-.092.924-.092,2.864-.092,3.7h-1.109L207.46,18.9c0-.831-.37-1.293-1.386-1.293Z" transform="translate(-167.458 -16.223)"/>
        <path id="Path_5612" data-name="Path 5612" class="cls-1" d="M215.829,23.144h-3.6a3.632,3.632,0,0,0-.185.554c-.277.831-.185,1.293.647,1.293h.554V26.1H208.9V24.992h.462c.831,0,1.109-.277,1.478-1.2.277-.647,2.31-6.19,2.772-7.391h2.032c.554,1.663,2.4,6.375,2.864,7.391.37.924.647,1.2,1.2,1.2h.554V26.1h-5.358V24.992h.554c.647,0,.831-.462.554-1.293Zm-1.848-4.9c-.37,1.016-1.016,2.864-1.478,4.157h3.049C215.09,21.112,214.351,19.264,213.981,18.248Z" transform="translate(-168.158 -16.215)"/>
        <path id="Path_5613" data-name="Path 5613" class="cls-1" d="M226.889,17.609h-.739c-.554,0-.739.185-.831.739v6c0,.554.277.647.739.647h.924c1.386,0,2.032-.462,2.125-2.772h1.109c-.092.924-.092,2.956-.092,3.973-.739-.092-2.125-.092-2.679-.092H221.9V25h.647c.647,0,.739-.185.831-.647v-6c0-.554-.185-.739-.739-.739H221.9V16.5h4.989C226.889,16.685,226.889,17.516,226.889,17.609Z" transform="translate(-169.148 -16.223)"/>
        <path id="Path_5614" data-name="Path 5614" class="cls-1" d="M172.953,32.592h1.016a20.12,20.12,0,0,0-.185,3.511h-1.293c-.185-1.478-.647-2.587-2.4-2.587s-2.494,1.109-2.494,3.973c0,3.233,1.016,3.973,2.4,3.973,1.663,0,2.587-1.109,2.679-2.864h1.386c-.092,2.679-1.2,3.973-4.25,3.973-2.864,0-4.712-1.386-4.712-5.081,0-3.511,2.032-4.989,4.619-4.989a4.951,4.951,0,0,1,2.4.554C172.676,33.331,172.86,33.239,172.953,32.592Z" transform="translate(-164.823 -17.441)"/>
        <path id="Path_5615" data-name="Path 5615" class="cls-1" d="M175.9,37.389c0-3.326,1.94-4.989,4.8-4.989q4.712,0,4.712,4.989c0,3.326-2.032,5.081-4.712,5.081C177.471,42.47,175.9,40.715,175.9,37.389Zm7.114,0c0-2.864-.647-3.973-2.4-3.973-1.663,0-2.4,1.2-2.4,3.973,0,2.864.554,3.973,2.4,3.973C182.367,41.454,183.014,40.16,183.014,37.389Z" transform="translate(-165.645 -17.434)"/>
        <path id="Path_5616" data-name="Path 5616" class="cls-1" d="M191.989,33.709h-.739c-.554,0-.739.185-.831.739v6c0,.554.277.647.739.647h.924c1.386,0,2.032-.462,2.125-2.772h1.109c-.092.924-.092,2.956-.092,3.973-.739-.092-2.125-.092-2.679-.092H187V41.1h.647c.647,0,.739-.185.831-.647v-6c0-.554-.185-.739-.739-.739H187V32.6h4.989Z" transform="translate(-166.491 -17.449)"/>
        <path id="Path_5617" data-name="Path 5617" class="cls-1" d="M201.789,33.709h-.739c-.554,0-.739.185-.831.739v6c0,.554.277.647.739.647h.924c1.386,0,2.032-.462,2.125-2.772h1.109c-.092.924-.092,2.956-.092,3.973-.739-.092-2.125-.092-2.679-.092H196.8V41.1h.647c.647,0,.739-.185.831-.647v-6c0-.554-.185-.739-.739-.739H196.8V32.6h4.989C201.789,32.785,201.789,33.616,201.789,33.709Z" transform="translate(-167.237 -17.449)"/>
        <path id="Path_5618" data-name="Path 5618" class="cls-1" d="M212.128,35.264h.924c0,.831-.092,1.109-.092,2.125a15.692,15.692,0,0,0,.092,2.217h-.831v-.277c0-1.109-.37-1.571-1.571-1.571H210.1v2.587a.677.677,0,0,0,.739.739H212.5c1.571,0,2.032-.739,2.032-2.679h1.109c-.092,1.016-.185,2.587-.185,3.788-.739-.092-2.125-.092-2.772-.092H206.4V40.992h.647a.732.732,0,0,0,.831-.831c.092-.739.092-4.989,0-5.728,0-.554-.277-.831-.739-.831H206.4V32.492h6.19c.554,0,2.4,0,3.049-.092-.092,1.016-.092,2.587-.092,3.511H214.53c0-1.94-.554-2.4-1.94-2.4h-1.755a.68.68,0,0,0-.739.739v2.494h.554c1.109,0,1.571-.37,1.571-1.478h-.092Z" transform="translate(-167.968 -17.434)"/>
        <path id="Path_5619" data-name="Path 5619" class="cls-1" d="M225.553,32.592h1.016a20.118,20.118,0,0,0-.185,3.511h-1.293c-.185-1.478-.647-2.587-2.4-2.587s-2.494,1.109-2.494,3.973c0,3.233,1.016,3.973,2.4,3.973,1.663,0,2.587-1.109,2.679-2.864h1.386c-.092,2.679-1.2,3.973-4.25,3.973-2.864,0-4.712-1.386-4.712-5.081,0-3.511,2.032-4.989,4.619-4.989a4.951,4.951,0,0,1,2.4.554C225.368,33.331,225.46,33.239,225.553,32.592Z" transform="translate(-168.829 -17.441)"/>
        <path id="Path_5620" data-name="Path 5620" class="cls-1" d="M233.82,33.8V40.36c0,.554.185.831.831.831h.739v1.016h-5.174V41.1h.647c.647,0,.831-.277.831-.831V33.709h-.924c-1.016,0-1.293.462-1.386,1.293l-.092,1.293h-1.2c0-.924,0-2.864-.092-3.7.462,0,1.109.092,2.4.092h4.342a12.584,12.584,0,0,0,2.31-.092c-.092.924-.092,2.864-.092,3.7h-1.109L235.76,35c0-.831-.37-1.293-1.386-1.293h-.554Z" transform="translate(-169.613 -17.449)"/>
        <path id="Path_5621" data-name="Path 5621" class="cls-1" d="M239.2,41.192h.647c.554,0,.739-.185.739-.647v-6.1c0-.554-.185-.739-.739-.739H239.2V32.6h4.989v1.109h-.647c-.462,0-.647.185-.739.739-.092.739,0,5.174,0,6.1,0,.462.185.647.739.647h.647v1.016H239.2Z" transform="translate(-170.466 -17.449)"/>
        <path id="Path_5622" data-name="Path 5622" class="cls-1" d="M245.5,37.389c0-3.326,1.94-4.989,4.8-4.989q4.712,0,4.712,4.989c0,3.326-2.032,5.081-4.712,5.081C247.071,42.47,245.5,40.715,245.5,37.389Zm7.114,0c0-2.864-.647-3.973-2.4-3.973-1.663,0-2.4,1.2-2.4,3.973,0,2.864.554,3.973,2.4,3.973C251.967,41.454,252.614,40.16,252.614,37.389Z" transform="translate(-170.946 -17.434)"/>
        <path id="Path_5623" data-name="Path 5623" class="cls-1" d="M264.437,38.882V34.54c0-.647-.277-.831-.739-.831h-.831V32.6h4.25v1.109h-.739c-.462,0-.739.185-.831.831v7.668h-1.571c-1.109-1.663-3.233-4.9-4.8-7.114v5.358c0,.462.185.647.831.647h.739v1.109H256.4V41.1h.647c.647,0,.831-.185.831-.647,0-.924.092-5.174,0-6,0-.554-.277-.739-.739-.739H256.4V32.6H260C261.112,34.171,263.236,37.219,264.437,38.882Z" transform="translate(-171.776 -17.449)"/>
      </g>
      <g id="Group_4510" data-name="Group 4510" transform="translate(109.106 7.854)">
        <g id="Group_4507" data-name="Group 4507">
          <path id="Path_5624" data-name="Path 5624" class="cls-2" d="M125.306,12.1a3.6,3.6,0,1,1-3.6-3.6A3.607,3.607,0,0,1,125.306,12.1Z" transform="translate(-118.1 -8.5)"/>
          <path id="Path_5625" data-name="Path 5625" class="cls-3" d="M125.306,23.8a3.6,3.6,0,1,1-3.6-3.6A3.607,3.607,0,0,1,125.306,23.8Z" transform="translate(-118.1 -9.391)"/>
          <path id="Path_5626" data-name="Path 5626" class="cls-3" d="M125.306,35.5a3.6,3.6,0,1,1-3.6-3.6A3.607,3.607,0,0,1,125.306,35.5Z" transform="translate(-118.1 -10.282)"/>
          <path id="Path_5627" data-name="Path 5627" class="cls-2" d="M125.306,47.2a3.6,3.6,0,1,1-3.6-3.6A3.607,3.607,0,0,1,125.306,47.2Z" transform="translate(-118.1 -11.173)"/>
        </g>
        <path id="Path_5628" data-name="Path 5628" class="cls-2" d="M155.606,29.7a3.6,3.6,0,1,1-3.6-3.6A3.607,3.607,0,0,1,155.606,29.7Z" transform="translate(-120.407 -9.84)"/>
        <g id="Group_4508" data-name="Group 4508" transform="translate(9.331 5.451)">
          <path id="Path_5629" data-name="Path 5629" class="cls-2" d="M135.406,18a3.6,3.6,0,1,1-3.6-3.6A3.55,3.55,0,0,1,135.406,18Z" transform="translate(-128.2 -14.4)"/>
          <path id="Path_5630" data-name="Path 5630" class="cls-3" d="M135.406,29.7a3.6,3.6,0,1,1-3.6-3.6A3.55,3.55,0,0,1,135.406,29.7Z" transform="translate(-128.2 -15.291)"/>
          <path id="Path_5631" data-name="Path 5631" class="cls-2" d="M135.406,41.4a3.6,3.6,0,1,1-3.6-3.6A3.55,3.55,0,0,1,135.406,41.4Z" transform="translate(-128.2 -16.182)"/>
        </g>
        <g id="Group_4509" data-name="Group 4509" transform="translate(18.754 10.809)">
          <path id="Path_5632" data-name="Path 5632" class="cls-2" d="M145.606,23.8a3.6,3.6,0,1,1-3.6-3.6A3.607,3.607,0,0,1,145.606,23.8Z" transform="translate(-138.4 -20.2)"/>
          <path id="Path_5633" data-name="Path 5633" class="cls-2" d="M145.606,35.5a3.6,3.6,0,1,1-3.6-3.6A3.607,3.607,0,0,1,145.606,35.5Z" transform="translate(-138.4 -21.091)"/>
        </g>
      </g>
      <g id="Group_4511" data-name="Group 4511" transform="translate(0 0)">
        <path id="Path_5634" data-name="Path 5634" class="cls-4" d="M45.774,17.557A14.45,14.45,0,1,1,62.957,28.736,14.478,14.478,0,0,1,45.774,17.557Z" transform="translate(-3.462 -0.003)"/>
        <path id="Path_5635" data-name="Path 5635" class="cls-5" d="M53.174,2.032c-5.728,3.049-8.869,8.5-7.114,11.918,1.755,3.326,7.945,3.6,13.673.554,5.82-3.049,8.961-8.315,7.206-11.64C65.184-.554,58.9-1.016,53.174,2.032Zm6.375,11.825c-5.451,2.956-11.086,2.956-12.841-.185-1.663-3.141,1.109-8.5,6.652-11.456C58.809-.739,64.906,0,66.569,3.141,68.232,6.374,65,10.994,59.548,13.858Z" transform="translate(-3.471 0.001)"/>
        <path id="Path_5636" data-name="Path 5636" class="cls-6" d="M54.17,4.319C46.964,8.2,43.454,15.682,46.318,21.04,49.182,26.491,57.4,27.692,64.61,23.9c7.206-3.88,10.717-11.363,7.853-16.722C69.6,1.732,61.376.531,54.17,4.319ZM64.24,23.258c-6.836,3.6-14.689,2.772-17.368-2.31-2.772-5.081,0-12.472,7.576-16.352C62.3.531,69.414,2.471,72.093,7.552,74.865,12.633,71.077,19.562,64.24,23.258Z" transform="translate(-3.451 -0.16)"/>
        <path id="Path_5637" data-name="Path 5637" class="cls-7" d="M54.036,2.625c-2.4,1.293-3.788,3.511-2.956,4.9.739,1.386,3.326,1.571,5.728.277S60.6,4.288,59.764,2.9C59.025,1.424,56.438,1.332,54.036,2.625Zm2.587,4.712c-2.125,1.109-4.434,1.2-5.081-.092S52.1,4.011,54.221,2.81c2.125-1.109,4.527-1.016,5.174.185C60.041,4.381,58.748,6.228,56.623,7.337Z" transform="translate(-3.872 -0.13)"/>
        <path id="Path_5638" data-name="Path 5638" class="cls-8" d="M52.953,1.855a14.767,14.767,0,0,0-6.1,20.047A14.929,14.929,0,0,0,66.9,28.093,14.858,14.858,0,0,0,52.953,1.855ZM66.625,27.538a14.322,14.322,0,0,1-19.308-5.913A14.389,14.389,0,1,1,72.538,7.768,14.838,14.838,0,0,1,66.625,27.538Z" transform="translate(-3.434 -0.007)"/>
        <path id="Path_5639" data-name="Path 5639" class="cls-9" d="M61.947,10.209C57.513,5.035,52.986,2.356,51.6,3.188l.277.37c1.386-.831,5.543,1.848,9.793,6.929,4.9,5.82,8.407,12.749,7.76,15.151,0,.092-.092.277-.092.37l.37.462c.092-.092.092-.185.185-.37C70.446,23.6,67.028,16.306,61.947,10.209Z" transform="translate(-3.93 -0.23)"/>
        <path id="Path_5640" data-name="Path 5640" class="cls-10" d="M64.557,28.639l.277.092h-.37c-5.081.37-9.885-5.913-10.9-13.673C52.639,7.76,55.411,1.293,59.938.37a2.034,2.034,0,0,1,.739-.092L60.769,0c-.277,0-.462.092-.739.092-4.712,1.016-7.668,7.391-6.744,14.966C54.3,23.1,59.106,29.193,64.372,28.732,64.465,28.916,64.372,28.639,64.557,28.639Z" transform="translate(-4.045 0.001)"/>
        <path id="Path_5641" data-name="Path 5641" class="cls-11" d="M67.37,8.159c-6-5.451-14.689-5.358-19.77-.647l.185.092c4.9-4.527,13.673-4.25,19.4.924,6,5.358,6.282,13.765,1.109,18.569l.462.37C74.207,22.479,73.652,13.794,67.37,8.159Z" transform="translate(-3.625 -0.305)"/>
        <path id="Path_5642" data-name="Path 5642" class="cls-1" d="M59.09,20.573c0-2.772-2.864-2.864-6.19-3.418V16.6H63.617l7.668,10.9h.092l7.3-10.9h4.619V41.082H79.969V18.355h-.092l-7.76,12.472-1.478,1.94L61.122,18.355H61.03V40.989H59.09V20.573Z" transform="translate(-4.029 -1.263)"/>
        <path id="Path_5643" data-name="Path 5643" class="cls-1" d="M41.582,27.81c-1.848-1.293-3.233-2.864-3.233-5.358a4.317,4.317,0,0,1,4.619-4.619,13.611,13.611,0,0,1,6.282,1.94V16.539a23.02,23.02,0,0,0-5.635-.739c-5.081,0-8.315,2.772-8.315,7.853a8.857,8.857,0,0,0,.462,2.864,33.8,33.8,0,0,1,5.82,1.293Z" transform="translate(-2.688 -1.202)"/>
        <path id="Path_5644" data-name="Path 5644" class="cls-1" d="M17.83,28C11.179,28,4.989,29.94,0,31.233c.647.37,1.2-.37,1.848,0a71.825,71.825,0,0,1,14.782-1.571c15.521,0,28.454,4.157,28.454,9.793,0,2.956-3.788,5.913-9.238,7.76,7.576-1.94,12.472-5.081,12.472-8.592C48.317,32.8,34.644,28,17.83,28Z" transform="translate(0 -2.131)"/>
        <path id="Path_5645" data-name="Path 5645" class="cls-1" d="M103.475,39.511H99.5c-2.679,0-3.049,0-3.049-2.125V29.811h6.467V27.963H96.454V20.388c0-1.94.185-2.4,2.217-2.4h3.88c3.049,0,3.049,1.109,3.418,3.049h1.109l-.185-4.434H87.4v.647c3.233.462,5.728,1.109,5.728,3.141v20.6h14.32l.277-4.9c.092-.092-1.755,3.418-4.25,3.418Z" transform="translate(-6.656 -1.263)"/>
        <path id="Path_5646" data-name="Path 5646" class="cls-1" d="M7.8,40.936h2.4L19.348,19.5,27.57,40.936c2.494-.092,2.772,1.2,3.88,1.386L21.1,15.9H11.773v.554c1.848.37,5.728.739,5.728,1.571a5.215,5.215,0,0,1-.554,1.848L7.8,40.936Z" transform="translate(-0.594 -1.21)"/>
      </g>
    </g>
    <g id="Group_4514" data-name="Group 4514" transform="translate(81.595 73.146)">
      <g id="Group_4515" data-name="Group 4515" transform="translate(0 0)">
        <g id="Group_4514-2" data-name="Group 4514" class="cls-12">
          <rect id="Rectangle_4116" data-name="Rectangle 4116" class="cls-1" width="279.682" height="45.695" transform="translate(-14.575 -18.357)"/>
        </g>
      </g>
      <g id="Group_4517" data-name="Group 4517" transform="translate(194.044 0)">
        <g id="Group_4516" data-name="Group 4516" class="cls-13">
          <rect id="Rectangle_4117" data-name="Rectangle 4117" class="cls-1" width="279.682" height="45.695" transform="translate(-208.619 -18.357)"/>
        </g>
      </g>
    </g>
  </g>
</svg>
